<svg width="84" height="84" viewBox="0 0 84 84" fill="none" xmlns="http://www.w3.org/2000/svg">
<mask id="mask0_96_299" style="mask-type:alpha" maskUnits="userSpaceOnUse" x="0" y="0" width="84" height="84">
<rect width="84" height="84" fill="#FF2000"/>
</mask>
<g mask="url(#mask0_96_299)">
<path d="M31.5003 69.9999C30.3919 69.9999 29.4003 69.6791 28.5253 69.0374C27.6503 68.3958 27.0086 67.5791 26.6003 66.5874L18.5503 45.4999H3.50027V38.4999H23.4503L31.5003 59.8499L47.6003 17.4124C48.0086 16.4208 48.6503 15.6041 49.5253 14.9624C50.4003 14.3208 51.3919 13.9999 52.5003 13.9999C53.6086 13.9999 54.6003 14.3208 55.4753 14.9624C56.3503 15.6041 56.9919 16.4208 57.4003 17.4124L65.4503 38.4999H80.5003V45.4999H60.5503L52.5003 24.1499L36.4003 66.5874C35.9919 67.5791 35.3503 68.3958 34.4753 69.0374C33.6003 69.6791 32.6086 69.9999 31.5003 69.9999Z" fill="#FF2000"/>
</g>
</svg>
