<svg width="516" height="100" viewBox="0 0 516 100" fill="none" xmlns="http://www.w3.org/2000/svg">
<path d="M190.955 24.368V83H179.195V44.864L163.487 83H154.583L138.791 44.864V83H127.031V24.368H140.387L159.035 67.964L177.683 24.368H190.955ZM224.506 83.756C220.026 83.756 215.994 82.776 212.41 80.816C208.826 78.8 205.998 75.972 203.926 72.332C201.91 68.692 200.902 64.492 200.902 59.732C200.902 54.972 201.938 50.772 204.01 47.132C206.138 43.492 209.022 40.692 212.662 38.732C216.302 36.716 220.362 35.708 224.842 35.708C229.322 35.708 233.382 36.716 237.022 38.732C240.662 40.692 243.518 43.492 245.59 47.132C247.718 50.772 248.782 54.972 248.782 59.732C248.782 64.492 247.69 68.692 245.506 72.332C243.378 75.972 240.466 78.8 236.77 80.816C233.13 82.776 229.042 83.756 224.506 83.756ZM224.506 73.508C226.634 73.508 228.622 73.004 230.47 71.996C232.374 70.932 233.886 69.364 235.006 67.292C236.126 65.22 236.686 62.7 236.686 59.732C236.686 55.308 235.51 51.92 233.158 49.568C230.862 47.16 228.034 45.956 224.674 45.956C221.314 45.956 218.486 47.16 216.19 49.568C213.95 51.92 212.83 55.308 212.83 59.732C212.83 64.156 213.922 67.572 216.106 69.98C218.346 72.332 221.146 73.508 224.506 73.508ZM284.456 35.792C290 35.792 294.48 37.556 297.896 41.084C301.312 44.556 303.02 49.428 303.02 55.7V83H291.26V57.296C291.26 53.6 290.336 50.772 288.488 48.812C286.64 46.796 284.12 45.788 280.928 45.788C277.68 45.788 275.104 46.796 273.2 48.812C271.352 50.772 270.428 53.6 270.428 57.296V83H258.668V36.464H270.428V42.26C271.996 40.244 273.984 38.676 276.392 37.556C278.856 36.38 281.544 35.792 284.456 35.792ZM321.427 30.92C319.355 30.92 317.619 30.276 316.219 28.988C314.875 27.644 314.203 25.992 314.203 24.032C314.203 22.072 314.875 20.448 316.219 19.16C317.619 17.816 319.355 17.144 321.427 17.144C323.499 17.144 325.207 17.816 326.551 19.16C327.951 20.448 328.651 22.072 328.651 24.032C328.651 25.992 327.951 27.644 326.551 28.988C325.207 30.276 323.499 30.92 321.427 30.92ZM327.223 36.464V83H315.463V36.464H327.223ZM353.794 46.124V68.636C353.794 70.204 354.158 71.352 354.886 72.08C355.67 72.752 356.958 73.088 358.75 73.088H364.21V83H356.818C346.906 83 341.95 78.184 341.95 68.552V46.124H336.406V36.464H341.95V24.956H353.794V36.464H364.21V46.124H353.794ZM394.593 83.756C390.113 83.756 386.081 82.776 382.497 80.816C378.913 78.8 376.085 75.972 374.013 72.332C371.997 68.692 370.989 64.492 370.989 59.732C370.989 54.972 372.025 50.772 374.097 47.132C376.225 43.492 379.109 40.692 382.749 38.732C386.389 36.716 390.449 35.708 394.929 35.708C399.409 35.708 403.469 36.716 407.109 38.732C410.749 40.692 413.605 43.492 415.677 47.132C417.805 50.772 418.869 54.972 418.869 59.732C418.869 64.492 417.777 68.692 415.593 72.332C413.465 75.972 410.553 78.8 406.857 80.816C403.217 82.776 399.129 83.756 394.593 83.756ZM394.593 73.508C396.721 73.508 398.709 73.004 400.557 71.996C402.461 70.932 403.973 69.364 405.093 67.292C406.213 65.22 406.773 62.7 406.773 59.732C406.773 55.308 405.597 51.92 403.245 49.568C400.949 47.16 398.121 45.956 394.761 45.956C391.401 45.956 388.573 47.16 386.277 49.568C384.037 51.92 382.917 55.308 382.917 59.732C382.917 64.156 384.009 67.572 386.193 69.98C388.433 72.332 391.233 73.508 394.593 73.508ZM440.515 43.688C442.027 41.224 443.987 39.292 446.395 37.892C448.859 36.492 451.659 35.792 454.795 35.792V48.14H451.687C447.991 48.14 445.191 49.008 443.287 50.744C441.439 52.48 440.515 55.504 440.515 59.816V83H428.755V36.464H440.515V43.688ZM460.952 59.564C460.952 54.86 461.876 50.688 463.724 47.048C465.628 43.408 468.176 40.608 471.368 38.648C474.616 36.688 478.228 35.708 482.204 35.708C485.676 35.708 488.7 36.408 491.276 37.808C493.908 39.208 496.008 40.972 497.576 43.1V36.464H509.42V83H497.576V76.196C496.064 78.38 493.964 80.2 491.276 81.656C488.644 83.056 485.592 83.756 482.12 83.756C478.2 83.756 474.616 82.748 471.368 80.732C468.176 78.716 465.628 75.888 463.724 72.248C461.876 68.552 460.952 64.324 460.952 59.564ZM497.576 59.732C497.576 56.876 497.016 54.44 495.896 52.424C494.776 50.352 493.264 48.784 491.36 47.72C489.456 46.6 487.412 46.04 485.228 46.04C483.044 46.04 481.028 46.572 479.18 47.636C477.332 48.7 475.82 50.268 474.644 52.34C473.524 54.356 472.964 56.764 472.964 59.564C472.964 62.364 473.524 64.828 474.644 66.956C475.82 69.028 477.332 70.624 479.18 71.744C481.084 72.864 483.1 73.424 485.228 73.424C487.412 73.424 489.456 72.892 491.36 71.828C493.264 70.708 494.776 69.14 495.896 67.124C497.016 65.052 497.576 62.588 497.576 59.732Z" fill="white"/>
<mask id="mask0_96_169" style="mask-type:alpha" maskUnits="userSpaceOnUse" x="0" y="0" width="101" height="100">
<rect width="100.194" height="100" fill="#FF2000"/>
</mask>
<g mask="url(#mask0_96_169)">
<path d="M37.5733 83.3333C36.2513 83.3333 35.0685 82.9513 34.0248 82.1875C32.9811 81.4236 32.2157 80.4513 31.7287 79.2708L22.1267 54.1666H4.17529V45.8333H27.9714L37.5733 71.25L56.7772 20.7291C57.2643 19.5486 58.0297 18.5763 59.0733 17.8125C60.117 17.0486 61.2999 16.6666 62.6219 16.6666C63.9439 16.6666 65.1267 17.0486 66.1704 17.8125C67.2141 18.5763 67.9795 19.5486 68.4666 20.7291L78.0685 45.8333H96.0199V54.1666H72.2238L62.6219 28.75L43.418 79.2708C42.931 80.4513 42.1656 81.4236 41.1219 82.1875C40.0782 82.9513 38.8954 83.3333 37.5733 83.3333Z" fill="#FF2000"/>
</g>
</svg>
