<svg width="26" height="26" viewBox="0 0 26 26" fill="none" xmlns="http://www.w3.org/2000/svg">
<path d="M10.625 19.7375C10.4 19.5125 10.2875 19.2406 10.2875 18.9219C10.2875 18.6031 10.4 18.3375 10.625 18.125L13.625 15.125H1.625C1.30625 15.125 1.03906 15.0166 0.823438 14.7997C0.607813 14.5828 0.5 14.314 0.5 13.9934C0.5 13.6728 0.607813 13.4063 0.823438 13.1938C1.03906 12.9813 1.30625 12.875 1.625 12.875H13.55L10.5125 9.8375C10.3125 9.6375 10.2125 9.38191 10.2125 9.07074C10.2125 8.75954 10.3277 8.49079 10.558 8.26449C10.7692 8.03816 11.0331 7.925 11.3499 7.925C11.6666 7.925 11.9375 8.0375 12.1625 8.2625L17.15 13.25C17.275 13.375 17.3625 13.5017 17.4125 13.63C17.4625 13.7583 17.4875 13.8958 17.4875 14.0425C17.4875 14.1892 17.4625 14.325 17.4125 14.45C17.3625 14.575 17.275 14.7 17.15 14.825L12.2 19.775C12 19.975 11.7438 20.075 11.4313 20.075C11.1188 20.075 10.85 19.9625 10.625 19.7375ZM15.4625 27.5C15.1438 27.5 14.8766 27.3916 14.6609 27.1747C14.4453 26.9578 14.3375 26.689 14.3375 26.3684C14.3375 26.0478 14.4453 25.7813 14.6609 25.5688C14.8766 25.3563 15.1438 25.25 15.4625 25.25H25.25V2.75H15.4625C15.1438 2.75 14.8766 2.64156 14.6609 2.42469C14.4453 2.20779 14.3375 1.93904 14.3375 1.61844C14.3375 1.29781 14.4453 1.03125 14.6609 0.81875C14.8766 0.60625 15.1438 0.5 15.4625 0.5H25.25C25.85 0.5 26.375 0.725 26.825 1.175C27.275 1.625 27.5 2.15 27.5 2.75V25.25C27.5 25.85 27.275 26.375 26.825 26.825C26.375 27.275 25.85 27.5 25.25 27.5H15.4625Z" fill="black"/>
</svg>
